<svg width="200" height="200" xmlns="http://www.w3.org/2000/svg" xmlns:xlink="http://www.w3.org/1999/xlink"><defs><path d="M103.453 17.66s-27.996-3.599-55.886 6.983c-22.68 8.6-48.598 48.35-47.334 52.52l30.226-14.65s-25.597 41.204-18.667 60.261c1.023 2.81 47.247 31.375 47.247 31.375-6.423-10.664-7-40.498-7-40.498s36.132 30.88 27.954 63.547c0 0 16.98-8.78 18.724-24.617 3.758 4.03 6.739 7.837 8.378 11.088 7.406 14.704-4.032 33.964-5.715 36.655 4.551-.15 9.027-1.107 13.243-2.693a48.052 48.052 0 0 0 11.948-6.52c7.255-5.396 12.993-12.802 15.744-21.156 1.396-4.167 2.03-8.52 1.808-12.887-.202-4.32-1.204-8.623-2.898-12.62-3.401-8.032-9.453-14.862-16.594-20.067a59.378 59.378 0 0 0-5.585-3.585l-.362-.202-.182-.102-.31-.188-.742-.464-1.502-.965a102.77 102.77 0 0 1-2.954-2.001c-3.902-2.739-7.674-5.788-11.012-9.396-3.316-3.607-6.163-7.85-7.907-12.606-.86-2.375-1.473-4.846-1.77-7.347a36.262 36.262 0 0 1-.236-3.754l.002-.959.022-.855c.02-.611.047-1.243.088-1.838.37-4.824 1.35-9.615 3.093-14.165 1.78-4.523 4.253-8.86 7.654-12.453 3.35-3.62 7.624-6.457 12.304-7.978 4.685-1.515 9.66-1.71 14.286-.817l-.057.635c-4.63.073-9.164.94-13.116 2.882-3.97 1.887-7.308 4.768-9.907 8.155a35.918 35.918 0 0 0-4.581 8.126c.782 4.043 2.79 11.364 7.823 19.238a118.916 118.916 0 0 0-10.626 3.524l.038.22c1.693.104 7.487.518 14.52 1.674a59.018 59.018 0 0 0 3.053 3.465c-5.74 1.17-11.047 2.86-14.405 4.037.313.586.645 1.165.995 1.736 6.579.628 18.873 2.234 28.842 6.012 2.51 1.39 5.2 2.7 8.137 3.9 1.013.542 1.918.997 2.713 1.373-4.091-.02-21.019.003-27.622 1.762.375.3.74.607 1.122.902a91.157 91.157 0 0 0 2.71 1.998l1.38.967.71.486.09.06c.088.056-.003 0-.054-.031l.02.013.194.118.388.237a64.761 64.761 0 0 1 5.923 4.149c3.903 3.06 7.48 6.588 10.507 10.524 3.066-.852 6.314-1.442 9.525-1.58 3.9-.18 7.793.284 11.412 1.314 3.63 1.015 6.967 2.56 10.092 4.27 1.149.617 2.263 1.264 3.373 1.911 3.238 1.104 5.426 2.252 5.893 3.164-.25-.814.522-7.888 3.343-15.367l2.282-4.288a23.413 23.413 0 0 1-2.821 1.566c-7.04-4.296-32.433-10.776-32.433-10.776l34.555-4.01c3.148 2.89 2.547 7.359 2.547 7.359l3.748-8.893c1.589-3.622 3.151-7.147 4.527-10.239l-10.501-6.275 13.71-.873c1.053-2.344 1.696-3.747 1.696-3.747l-41.135-17.635-17.145-23.648s-2.063-22.763-12.83-30.063C117.01 5.498 95.36 1.471 95.36 1.471l8.093 16.19zM64.088 67.58c1.651-10.63 10.36-28.877 18.774-33.87 0 0 11.729 4.008 19.28 5.69 0 0-24.842 11.776-24.861 39.564-.02 29.45 24.832 51.754 24.832 51.754S58.44 103.922 64.088 67.58zm74.702 8.83l-2.11-10.09s11.482 4.924 13.921 7.85h.023l2.93 7.349L140.3 76.42v.241l-1.509-.25zM25.242 114.233c-2.918-7.609 15.824-35.852 15.824-35.852l3.608 8.734c-12.456 17.371-5.14 39.443-5.14 39.443l-14.292-12.325zm123.597 21.785c-2.024.544-3.938 1.293-5.814 2.194a45.008 45.008 0 0 1 2.133 4.72 40.766 40.766 0 0 1 2.692 13.72 72.26 72.26 0 0 1 .147 20.546c.196-.27.392-.545.586-.824 9.622-13.692 12.948-28.797 11.659-41.136a32.547 32.547 0 0 0-1.803-.174 31.02 31.02 0 0 0-1.876-.058c-2.652 0-5.244.348-7.724 1.012" id="a"/><linearGradient x1="46.246%" y1="100%" x2="46.246%" y2="0%" id="b"><stop stop-color="#A7925F" offset="0%"/><stop stop-color="#FFF" offset="100%"/></linearGradient></defs><g fill="none" fill-rule="evenodd"><mask id="c" fill="#fff"><use xlink:href="#a"/></mask><path d="M103.453 17.66s-27.996-3.599-55.886 6.983c-22.68 8.6-48.598 48.35-47.334 52.52l30.226-14.65s-25.597 41.204-18.667 60.261c1.023 2.81 47.247 31.375 47.247 31.375-6.423-10.664-7-40.498-7-40.498s36.132 30.88 27.954 63.547c0 0 16.98-8.78 18.724-24.617 3.758 4.03 6.739 7.837 8.378 11.088 7.406 14.704-4.032 33.964-5.715 36.655 4.551-.15 9.027-1.107 13.243-2.693a48.052 48.052 0 0 0 11.948-6.52c7.255-5.396 12.993-12.802 15.744-21.156 1.396-4.167 2.03-8.52 1.808-12.887-.202-4.32-1.204-8.623-2.898-12.62-3.401-8.032-9.453-14.862-16.594-20.067a59.378 59.378 0 0 0-5.585-3.585l-.362-.202-.182-.102-.31-.188-.742-.464-1.502-.965a102.77 102.77 0 0 1-2.954-2.001c-3.902-2.739-7.674-5.788-11.012-9.396-3.316-3.607-6.163-7.85-7.907-12.606-.86-2.375-1.473-4.846-1.77-7.347a36.262 36.262 0 0 1-.236-3.754l.002-.959.022-.855c.02-.611.047-1.243.088-1.838.37-4.824 1.35-9.615 3.093-14.165 1.78-4.523 4.253-8.86 7.654-12.453 3.35-3.62 7.624-6.457 12.304-7.978 4.685-1.515 9.66-1.71 14.286-.817l-.057.635c-4.63.073-9.164.94-13.116 2.882-3.97 1.887-7.308 4.768-9.907 8.155a35.918 35.918 0 0 0-4.581 8.126c.782 4.043 2.79 11.364 7.823 19.238a118.916 118.916 0 0 0-10.626 3.524l.038.22c1.693.104 7.487.518 14.52 1.674a59.018 59.018 0 0 0 3.053 3.465c-5.74 1.17-11.047 2.86-14.405 4.037.313.586.645 1.165.995 1.736 6.579.628 18.873 2.234 28.842 6.012 2.51 1.39 5.2 2.7 8.137 3.9 1.013.542 1.918.997 2.713 1.373-4.091-.02-21.019.003-27.622 1.762.375.3.74.607 1.122.902a91.157 91.157 0 0 0 2.71 1.998l1.38.967.71.486.09.06c.088.056-.003 0-.054-.031l.02.013.194.118.388.237a64.761 64.761 0 0 1 5.923 4.149c3.903 3.06 7.48 6.588 10.507 10.524 3.066-.852 6.314-1.442 9.525-1.58 3.9-.18 7.793.284 11.412 1.314 3.63 1.015 6.967 2.56 10.092 4.27 1.149.617 2.263 1.264 3.373 1.911 3.238 1.104 5.426 2.252 5.893 3.164-.25-.814.522-7.888 3.343-15.367l2.282-4.288a23.413 23.413 0 0 1-2.821 1.566c-7.04-4.296-32.433-10.776-32.433-10.776l34.555-4.01c3.148 2.89 2.547 7.359 2.547 7.359l3.748-8.893c1.589-3.622 3.151-7.147 4.527-10.239l-10.501-6.275 13.71-.873c1.053-2.344 1.696-3.747 1.696-3.747l-41.135-17.635-17.145-23.648s-2.063-22.763-12.83-30.063C117.01 5.498 95.36 1.471 95.36 1.471l8.093 16.19zM64.088 67.58c1.651-10.63 10.36-28.877 18.774-33.87 0 0 11.729 4.008 19.28 5.69 0 0-24.842 11.776-24.861 39.564-.02 29.45 24.832 51.754 24.832 51.754S58.44 103.922 64.088 67.58zm74.702 8.83l-2.11-10.09s11.482 4.924 13.921 7.85h.023l2.93 7.349L140.3 76.42v.241l-1.509-.25zM25.242 114.233c-2.918-7.609 15.824-35.852 15.824-35.852l3.608 8.734c-12.456 17.371-5.14 39.443-5.14 39.443l-14.292-12.325zm123.597 21.785c-2.024.544-3.938 1.293-5.814 2.194a45.008 45.008 0 0 1 2.133 4.72 40.766 40.766 0 0 1 2.692 13.72 72.26 72.26 0 0 1 .147 20.546c.196-.27.392-.545.586-.824 9.622-13.692 12.948-28.797 11.659-41.136a32.547 32.547 0 0 0-1.803-.174 31.02 31.02 0 0 0-1.876-.058c-2.652 0-5.244.348-7.724 1.012" fill="url(#b)" mask="url(#c)"/></g></svg>