<?xml version="1.0" standalone="no"?>
<!DOCTYPE svg PUBLIC "-//W3C//DTD SVG 20010904//EN"
 "http://www.w3.org/TR/2001/REC-SVG-20010904/DTD/svg10.dtd">
<svg version="1.0" xmlns="http://www.w3.org/2000/svg"
 width="2400.000000pt" height="2400.000000pt" viewBox="0 0 2400.000000 2400.000000"
 preserveAspectRatio="xMidYMid meet">
<metadata>
Created by potrace 1.11, written by Peter Selinger 2001-2013
</metadata>
<g transform="translate(0.000000,2400.000000) scale(0.100000,-0.100000)"
fill="#000000" stroke="none">
<path d="M11452 23812 c1 -5 218 -439 481 -964 262 -526 477 -958 477 -962 0
-4 -19 -5 -42 -2 -24 3 -74 8 -113 11 -38 3 -83 8 -100 10 -16 2 -79 7 -140
11 -60 3 -128 8 -150 9 -328 27 -1450 27 -1789 0 -23 -2 -90 -6 -151 -10 -60
-3 -128 -8 -150 -10 -22 -2 -80 -7 -130 -10 -140 -10 -214 -17 -480 -46 -215
-23 -203 -22 -435 -54 -256 -36 -243 -34 -365 -55 -60 -10 -130 -21 -155 -25
-25 -4 -160 -29 -300 -57 -140 -27 -264 -52 -275 -54 -50 -9 -386 -89 -530
-125 -482 -122 -1056 -304 -1440 -456 -488 -194 -1013 -512 -1550 -941 -93
-75 -172 -138 -175 -141 -3 -4 -48 -42 -100 -86 -52 -44 -100 -84 -106 -90 -6
-5 -49 -44 -95 -85 -191 -171 -400 -373 -636 -613 -204 -207 -324 -335 -540
-577 -109 -122 -344 -397 -473 -555 -45 -55 -89 -109 -98 -120 -249 -301 -668
-864 -917 -1233 -174 -258 -418 -637 -484 -755 -10 -18 -55 -96 -99 -175 -110
-193 -222 -416 -276 -549 -66 -161 -104 -314 -86 -343 9 -15 -18 -27 345 150
267 130 455 222 680 330 77 37 219 106 315 152 96 47 245 119 330 161 85 41
250 121 365 177 116 56 255 124 310 150 55 26 204 98 330 159 127 62 311 151
410 199 98 48 258 126 355 173 96 48 176 85 178 84 1 -1 -49 -91 -113 -199
-63 -108 -124 -213 -135 -234 -11 -20 -30 -53 -42 -72 -134 -224 -452 -823
-677 -1275 -77 -154 -153 -309 -169 -345 -16 -36 -51 -110 -77 -165 -420 -894
-773 -1847 -954 -2573 -37 -147 -83 -348 -96 -417 -35 -194 -47 -263 -64 -395
-78 -593 -55 -1080 70 -1475 26 -83 35 -99 87 -151 218 -220 1140 -855 2682
-1845 672 -432 642 -413 1000 -639 168 -106 370 -234 450 -285 145 -92 1362
-851 1432 -894 l38 -22 -36 63 c-76 133 -160 334 -235 561 -46 137 -121 400
-133 457 -2 14 -18 81 -34 150 -27 109 -90 417 -107 520 -3 19 -12 69 -20 110
-7 41 -17 102 -20 135 -4 33 -9 63 -11 66 -1 3 -6 28 -9 55 -3 27 -10 74 -15
104 -5 30 -23 161 -39 290 -30 238 -45 371 -66 575 -3 33 -8 78 -10 100 -2 22
-7 72 -10 110 -3 39 -8 93 -10 120 -3 28 -7 79 -10 115 -3 36 -7 90 -9 120 -3
30 -8 100 -11 155 -3 55 -8 118 -10 140 -2 22 -7 99 -10 170 -3 72 -8 148 -10
170 -2 22 -7 128 -10 235 -4 107 -8 225 -10 263 -3 55 -1 66 10 60 47 -27 539
-507 766 -748 59 -63 357 -398 419 -471 335 -395 635 -790 897 -1184 83 -126
108 -164 196 -303 64 -100 277 -463 277 -472 0 -2 16 -32 36 -67 65 -114 304
-597 304 -614 0 -2 13 -33 30 -69 120 -262 290 -750 370 -1060 78 -302 146
-665 165 -880 3 -38 8 -88 10 -110 9 -78 19 -342 19 -470 0 -125 -12 -397 -18
-433 -2 -9 -7 -48 -10 -87 -4 -38 -11 -97 -16 -130 -5 -33 -12 -80 -15 -105
-9 -62 -72 -371 -81 -394 -7 -17 -6 -17 27 0 66 34 261 156 377 236 650 450
1196 1035 1482 1588 24 47 51 99 60 115 28 51 116 265 153 372 58 164 125 456
139 598 3 28 10 22 134 -115 636 -705 935 -1182 1074 -1715 75 -290 102 -535
95 -880 -3 -126 -7 -246 -10 -265 -2 -19 -12 -96 -21 -170 -58 -489 -214
-1039 -449 -1591 -113 -263 -279 -597 -406 -815 -33 -55 -59 -104 -59 -107 0
-11 420 -8 481 2 30 6 72 12 94 15 199 26 573 121 845 215 712 245 1411 656
1979 1165 99 88 401 396 488 496 464 536 800 1123 1004 1755 75 231 158 602
174 780 4 39 8 77 10 85 9 36 19 239 19 400 1 288 -16 507 -59 755 -141 808
-482 1534 -1054 2245 -47 58 -87 107 -90 110 -4 3 -40 43 -81 90 -96 109 -410
424 -520 520 -47 41 -87 77 -90 80 -3 3 -66 55 -140 116 -264 216 -529 402
-830 581 -322 191 -383 229 -535 329 -254 167 -614 423 -733 519 -9 7 -80 64
-157 126 -979 788 -1582 1638 -1828 2579 -54 205 -98 450 -112 625 -3 44 -8
100 -11 125 -6 54 -6 547 0 575 2 11 7 74 11 140 4 66 8 122 10 125 1 3 6 37
9 75 4 39 9 81 11 95 2 14 7 43 10 65 3 22 7 51 10 65 2 14 7 43 10 65 53 385
198 905 356 1281 423 1004 1067 1732 1904 2151 341 171 733 284 1140 327 125
14 616 15 690 2 17 -2 68 -10 115 -16 47 -6 113 -16 148 -22 l62 -10 0 -39 c0
-24 -5 -39 -12 -40 -14 -1 -75 -4 -243 -13 -60 -4 -125 -9 -145 -11 -290 -39
-391 -57 -565 -101 -101 -25 -370 -112 -435 -141 -103 -45 -365 -178 -435
-220 -384 -231 -728 -554 -1009 -947 -142 -198 -345 -563 -436 -781 -32 -79
-33 -81 -21 -152 19 -112 95 -405 157 -601 163 -517 386 -1008 682 -1502 41
-69 77 -128 79 -133 2 -4 -2 -9 -9 -11 -7 -3 -92 -28 -188 -56 -476 -141
-1070 -349 -1070 -375 0 -9 36 -15 122 -20 68 -4 129 -8 138 -10 8 -2 60 -6
115 -10 55 -4 102 -9 105 -10 3 -2 50 -6 105 -10 55 -4 102 -9 105 -10 3 -2
41 -6 85 -10 44 -4 82 -9 85 -10 3 -2 39 -6 80 -10 114 -10 725 -96 786 -110
11 -2 54 -44 93 -92 40 -49 108 -126 150 -173 43 -47 92 -101 110 -120 l32
-35 -93 -22 c-51 -12 -106 -24 -123 -26 -94 -14 -758 -191 -946 -253 -41 -13
-84 -26 -95 -29 -40 -8 -449 -147 -458 -155 -5 -5 17 -52 50 -109 53 -93 60
-101 88 -102 17 0 42 -2 56 -4 14 -1 54 -6 90 -9 36 -4 79 -8 95 -10 17 -2 57
-7 90 -10 870 -93 1915 -301 2615 -519 268 -84 464 -157 560 -208 178 -94 575
-287 720 -349 134 -57 476 -223 492 -238 4 -4 -151 -7 -345 -8 -335 -1 -906
-11 -1067 -19 -41 -2 -142 -6 -225 -10 -161 -6 -275 -12 -395 -20 -219 -15
-360 -25 -400 -30 -25 -3 -72 -7 -105 -10 -33 -2 -78 -7 -100 -10 -22 -2 -62
-7 -90 -10 -191 -22 -548 -85 -563 -100 -3 -3 1 -11 10 -18 30 -23 403 -302
448 -334 94 -67 615 -413 635 -422 5 -2 14 -8 20 -12 39 -32 79 -61 140 -104
159 -111 456 -352 640 -518 93 -84 405 -393 487 -483 39 -43 130 -148 212
-244 20 -24 147 -181 152 -188 2 -2 56 10 121 27 240 62 535 116 743 136 36 4
81 9 100 12 65 9 615 11 705 3 159 -15 194 -19 303 -35 648 -95 1260 -334
2077 -810 50 -29 108 -58 130 -65 74 -24 284 -109 363 -149 141 -69 189 -100
253 -161 l37 -36 1 100 c1 54 3 102 5 105 2 3 7 37 11 74 3 37 8 78 11 90 2
12 6 40 9 62 12 100 64 359 116 575 87 361 219 761 305 921 31 57 88 165 126
239 39 74 75 141 81 148 17 21 -2 13 -96 -42 -51 -30 -122 -69 -159 -87 l-67
-33 -38 21 c-425 238 -1212 520 -2513 903 -96 28 -333 96 -425 121 -94 25
-163 44 -340 94 -135 38 -223 61 -437 117 -70 18 -124 35 -120 39 4 3 79 14
167 23 88 10 171 19 185 21 14 2 70 9 125 15 55 6 111 13 125 15 14 2 52 6 85
10 33 3 76 8 95 10 111 13 229 26 255 30 17 2 57 6 90 10 33 3 74 8 90 10 17
3 71 9 120 15 50 5 106 12 125 14 19 2 62 7 95 11 33 3 74 8 90 10 17 2 93 11
170 20 183 21 212 24 260 30 94 11 304 35 350 40 45 5 69 8 155 20 14 2 59 7
100 10 41 4 77 8 80 10 3 1 41 6 84 10 43 4 86 8 95 10 18 3 100 13 172 20 25
2 119 13 210 24 90 11 189 23 219 26 30 3 72 8 93 10 67 9 111 14 162 20 28 3
104 12 170 20 163 20 157 21 205 -29 162 -170 260 -427 264 -692 0 -57 3 -104
6 -104 3 0 35 69 69 153 35 83 74 175 86 202 13 28 39 91 60 140 61 149 165
397 187 445 11 25 23 54 28 65 10 25 105 243 137 315 14 30 75 167 135 305 61
137 118 268 128 290 55 119 150 338 148 340 -3 3 -10 6 -726 434 -288 172
-522 314 -520 316 3 3 96 11 243 20 50 3 117 8 150 10 33 2 103 7 155 10 101
5 227 13 325 20 33 2 107 7 165 10 58 3 123 8 145 10 22 2 101 7 175 11 74 5
138 9 143 10 4 1 35 2 70 3 l62 1 100 221 c55 122 101 225 103 229 1 3 -3 7
-10 8 -7 0 -537 226 -1178 502 -641 276 -1174 505 -1185 509 -64 27 -365 155
-390 166 -16 8 -331 143 -700 301 -368 157 -690 295 -715 306 -25 11 -205 88
-400 172 l-355 152 -403 554 c-222 305 -425 587 -453 625 -27 39 -66 93 -86
122 -21 28 -280 386 -577 794 -307 424 -540 753 -542 768 -1 14 -8 67 -14 116
-6 50 -14 108 -17 130 -26 208 -110 642 -174 905 -92 379 -249 865 -354 1095
-7 17 -34 76 -59 133 -212 472 -496 869 -797 1111 -268 216 -754 473 -1321
700 -368 147 -954 343 -1313 441 -587 158 -926 241 -1265 310 -58 11 -116 23
-128 26 -13 3 -22 1 -20 -4z m-992 -4027 c8 -1 107 -32 220 -68 471 -150 1153
-346 1395 -401 6 -1 47 -11 93 -21 45 -10 82 -21 82 -24 0 -3 -13 -12 -29 -19
-152 -67 -677 -413 -853 -561 -13 -10 -68 -56 -123 -102 -269 -222 -529 -482
-785 -785 -151 -179 -375 -501 -507 -729 -306 -529 -511 -1103 -608 -1695 -8
-52 -17 -106 -19 -120 -3 -14 -7 -49 -10 -77 -3 -29 -8 -74 -11 -100 -28 -250
-35 -574 -21 -887 4 -88 9 -167 11 -175 1 -9 6 -56 10 -106 4 -49 9 -99 11
-110 1 -11 10 -78 19 -149 9 -71 19 -138 21 -150 2 -11 9 -50 14 -85 133 -817
480 -1767 957 -2614 24 -42 55 -99 70 -125 40 -72 208 -344 285 -461 37 -57
68 -105 68 -107 0 -7 251 -360 348 -489 190 -253 458 -581 622 -760 25 -27 70
-76 100 -110 30 -33 136 -142 235 -243 99 -101 182 -186 185 -189 19 -22 -306
200 -500 340 -443 322 -866 669 -1275 1047 -92 85 -613 606 -686 686 -514 567
-864 1028 -1202 1584 -472 777 -787 1617 -892 2375 -3 22 -8 49 -10 61 -2 11
-7 54 -11 95 -3 41 -7 76 -9 79 -10 16 -20 280 -20 520 0 266 6 407 25 554 5
39 12 98 15 131 25 222 140 697 240 990 154 449 281 756 485 1170 451 918 987
1630 1470 1954 l73 48 251 -84 c138 -46 258 -86 266 -88z m6082 -3804 c618
-275 1166 -572 1403 -761 127 -101 118 -86 308 -560 95 -239 173 -437 171
-439 -2 -3 -1248 472 -1349 514 -165 69 -219 86 -241 75 -12 -7 -30 -10 -40
-6 -11 3 -35 8 -54 11 -19 3 -47 8 -61 11 -29 5 -9 -75 -175 719 -14 66 -34
161 -44 210 -11 50 -22 101 -24 115 -4 23 -18 89 -31 148 -3 12 -3 22 0 22 2
0 64 -27 137 -59z m-11509 -1636 c52 -126 147 -357 212 -513 l117 -283 -90
-137 c-389 -594 -618 -1217 -726 -1972 -8 -58 -20 -159 -26 -225 -6 -66 -13
-136 -16 -155 -9 -72 -12 -700 -3 -820 8 -124 27 -332 34 -380 2 -14 6 -50 10
-80 33 -279 110 -654 191 -940 7 -23 6 -24 -12 -10 -23 18 -292 248 -349 299
-22 20 -69 61 -104 91 -36 30 -69 60 -75 65 -6 6 -90 77 -186 160 -96 82 -177
152 -180 155 -3 3 -34 30 -70 60 -36 30 -67 57 -70 60 -3 3 -34 30 -70 60 -36
30 -67 57 -70 60 -3 3 -52 46 -110 95 -58 50 -107 92 -110 95 -3 3 -36 32 -75
65 -38 33 -81 70 -94 82 -14 12 -48 41 -78 65 -71 58 -87 108 -88 278 0 157 8
219 51 400 65 275 193 621 385 1042 52 114 281 576 336 678 16 30 52 96 78
145 124 231 326 585 491 863 43 73 88 147 98 165 28 46 144 235 171 277 12 19
46 73 75 120 159 255 243 381 250 373 5 -4 51 -111 103 -238z"/>
<path d="M18659 7796 c-2 -2 -58 -6 -124 -10 -66 -3 -129 -8 -141 -10 -11 -2
-47 -7 -80 -10 -228 -24 -573 -114 -844 -221 -122 -48 -290 -121 -299 -130 -1
-2 27 -66 64 -142 254 -523 429 -1123 481 -1648 2 -27 7 -68 9 -90 3 -22 7
-89 10 -150 8 -164 14 -244 25 -305 5 -30 11 -77 15 -105 9 -84 15 -139 19
-170 2 -16 7 -70 11 -120 4 -49 9 -97 10 -105 26 -144 26 -1093 0 -1345 -4
-37 -7 -72 -21 -230 -2 -33 -7 -69 -9 -80 -2 -11 -7 -49 -10 -85 -4 -36 -9
-72 -11 -80 -10 -30 24 15 139 185 312 463 517 837 752 1370 225 511 425 1191
514 1755 32 204 32 203 51 380 6 58 13 119 15 135 19 136 27 737 13 940 -7
102 -20 239 -22 242 -2 2 -75 12 -145 18 -74 7 -417 16 -422 11z"/>
</g>
</svg>
