<svg version="1" xmlns="http://www.w3.org/2000/svg" width="3200" height="3200" viewBox="0 0 2400 2400"><path d="M1145.2 18.8c.1.5 21.8 43.9 48.1 96.4 26.2 52.6 47.7 95.8 47.7 96.2 0 .4-1.9.5-4.2.2-2.4-.3-7.4-.8-11.3-1.1-3.8-.3-8.3-.8-10-1-1.6-.2-7.9-.7-14-1.1-6-.3-12.8-.8-15-.9-32.8-2.7-145-2.7-178.9 0-2.3.2-9 .6-15.1 1-6 .3-12.8.8-15 1-2.2.2-8 .7-13 1-14 1-21.4 1.7-48 4.6-21.5 2.3-20.3 2.2-43.5 5.4-25.6 3.6-24.3 3.4-36.5 5.5-6 1-13 2.1-15.5 2.5-2.5.4-16 2.9-30 5.7-14 2.7-26.4 5.2-27.5 5.4-5 .9-38.6 8.9-53 12.5-48.2 12.2-105.6 30.4-144 45.6-48.8 19.4-101.3 51.2-155 94.1-9.3 7.5-17.2 13.8-17.5 14.1-.3.4-4.8 4.2-10 8.6-5.2 4.4-10 8.4-10.6 9-.6.5-4.9 4.4-9.5 8.5-19.1 17.1-40 37.3-63.6 61.3-20.4 20.7-32.4 33.5-54 57.7-10.9 12.2-34.4 39.7-47.3 55.5-4.5 5.5-8.9 10.9-9.8 12-24.9 30.1-66.8 86.4-91.7 123.3-17.4 25.8-41.8 63.7-48.4 75.5-1 1.8-5.5 9.6-9.9 17.5-11 19.3-22.2 41.6-27.6 54.9C5 905.8 1.2 921.1 3 924c.9 1.5-1.8 2.7 34.5-15 26.7-13 45.5-22.2 68-33 7.7-3.7 21.9-10.6 31.5-15.2 9.6-4.7 24.5-11.9 33-16.1 8.5-4.1 25-12.1 36.5-17.7 11.6-5.6 25.5-12.4 31-15 5.5-2.6 20.4-9.8 33-15.9 12.7-6.2 31.1-15.1 41-19.9 9.8-4.8 25.8-12.6 35.5-17.3 9.6-4.8 17.6-8.5 17.8-8.4.1.1-4.9 9.1-11.3 19.9-6.3 10.8-12.4 21.3-13.5 23.4-1.1 2-3 5.3-4.2 7.2-13.4 22.4-45.2 82.3-67.7 127.5-7.7 15.4-15.3 30.9-16.9 34.5-1.6 3.6-5.1 11-7.7 16.5-42 89.4-77.3 184.7-95.4 257.3-3.7 14.7-8.3 34.8-9.6 41.7-3.5 19.4-4.7 26.3-6.4 39.5-7.8 59.3-5.5 108 7 147.5 2.6 8.3 3.5 9.9 8.7 15.1 21.8 22 114 85.5 268.2 184.5 67.2 43.2 64.2 41.3 100 63.9 16.8 10.6 37 23.4 45 28.5 14.5 9.2 136.2 85.1 143.2 89.4l3.8 2.2-3.6-6.3c-7.6-13.3-16-33.4-23.5-56.1-4.6-13.7-12.1-40-13.3-45.7-.2-1.4-1.8-8.1-3.4-15-2.7-10.9-9-41.7-10.7-52-.3-1.9-1.2-6.9-2-11-.7-4.1-1.7-10.2-2-13.5-.4-3.3-.9-6.3-1.1-6.6-.1-.3-.6-2.8-.9-5.5-.3-2.7-1-7.4-1.5-10.4s-2.3-16.1-3.9-29c-3-23.8-4.5-37.1-6.6-57.5-.3-3.3-.8-7.8-1-10-.2-2.2-.7-7.2-1-11-.3-3.9-.8-9.3-1-12-.3-2.8-.7-7.9-1-11.5-.3-3.6-.7-9-.9-12-.3-3-.8-10-1.1-15.5-.3-5.5-.8-11.8-1-14-.2-2.2-.7-9.9-1-17-.3-7.2-.8-14.8-1-17-.2-2.2-.7-12.8-1-23.5-.4-10.7-.8-22.5-1-26.3-.3-5.5-.1-6.6 1-6 4.7 2.7 53.9 50.7 76.6 74.8 5.9 6.3 35.7 39.8 41.9 47.1 33.5 39.5 63.5 79 89.7 118.4 8.3 12.6 10.8 16.4 19.6 30.3 6.4 10 27.7 46.3 27.7 47.2 0 .2 1.6 3.2 3.6 6.7 6.5 11.4 30.4 59.7 30.4 61.4 0 .2 1.3 3.3 3 6.9 12 26.2 29 75 37 106 7.8 30.2 14.6 66.5 16.5 88 .3 3.8.8 8.8 1 11 .9 7.8 1.9 34.2 1.9 47 0 12.5-1.2 39.7-1.8 43.3-.2.9-.7 4.8-1 8.7-.4 3.8-1.1 9.7-1.6 13-.5 3.3-1.2 8-1.5 10.5-.9 6.2-7.2 37.1-8.1 39.4-.7 1.7-.6 1.7 2.7 0 6.6-3.4 26.1-15.6 37.7-23.6 65-45 119.6-103.5 148.2-158.8 2.4-4.7 5.1-9.9 6-11.5 2.8-5.1 11.6-26.5 15.3-37.2 5.8-16.4 12.5-45.6 13.9-59.8.3-2.8 1-2.2 13.4 11.5 63.6 70.5 93.5 118.2 107.4 171.5 7.5 29 10.2 53.5 9.5 88-.3 12.6-.7 24.6-1 26.5-.2 1.9-1.2 9.6-2.1 17-5.8 48.9-21.4 103.9-44.9 159.1-11.3 26.3-27.9 59.7-40.6 81.5-3.3 5.5-5.9 10.4-5.9 10.7 0 1.1 42 .8 48.1-.2 3-.6 7.2-1.2 9.4-1.5 19.9-2.6 57.3-12.1 84.5-21.5 71.2-24.5 141.1-65.6 197.9-116.5 9.9-8.8 40.1-39.6 48.8-49.6 46.4-53.6 80-112.3 100.4-175.5 7.5-23.1 15.8-60.2 17.4-78 .4-3.9.8-7.7 1-8.5.9-3.6 1.9-23.9 1.9-40 .1-28.8-1.6-50.7-5.9-75.5-14.1-80.8-48.2-153.4-105.4-224.5-4.7-5.8-8.7-10.7-9-11-.4-.3-4-4.3-8.1-9-9.6-10.9-41-42.4-52-52-4.7-4.1-8.7-7.7-9-8-.3-.3-6.6-5.5-14-11.6-26.4-21.6-52.9-40.2-83-58.1-32.2-19.1-38.3-22.9-53.5-32.9-25.4-16.7-61.4-42.3-73.3-51.9-.9-.7-8-6.4-15.7-12.6-97.9-78.8-158.2-163.8-182.8-257.9-5.4-20.5-9.8-45-11.2-62.5-.3-4.4-.8-10-1.1-12.5-.6-5.4-.6-54.7 0-57.5.2-1.1.7-7.4 1.1-14 .4-6.6.8-12.2 1-12.5.1-.3.6-3.7.9-7.5.4-3.9.9-8.1 1.1-9.5.2-1.4.7-4.3 1-6.5.3-2.2.7-5.1 1-6.5.2-1.4.7-4.3 1-6.5 5.3-38.5 19.8-90.5 35.6-128.1 42.3-100.4 106.7-173.2 190.4-215.1 34.1-17.1 73.3-28.4 114-32.7 12.5-1.4 61.6-1.5 69-.2 1.7.2 6.8 1 11.5 1.6 4.7.6 11.3 1.6 14.8 2.2l6.2 1v3.9c0 2.4-.5 3.9-1.2 4-1.4.1-7.5.4-24.3 1.3-6 .4-12.5.9-14.5 1.1-29 3.9-39.1 5.7-56.5 10.1-10.1 2.5-37 11.2-43.5 14.1-10.3 4.5-36.5 17.8-43.5 22-38.4 23.1-72.8 55.4-100.9 94.7-14.2 19.8-34.5 56.3-43.6 78.1-3.2 7.9-3.3 8.1-2.1 15.2 1.9 11.2 9.5 40.5 15.7 60.1 16.3 51.7 38.6 100.8 68.2 150.2 4.1 6.9 7.7 12.8 7.9 13.3.2.4-.2.9-.9 1.1-.7.3-9.2 2.8-18.8 5.6-47.6 14.1-107 34.9-107 37.5 0 .9 3.6 1.5 12.2 2 6.8.4 12.9.8 13.8 1 .8.2 6 .6 11.5 1s10.2.9 10.5 1c.3.2 5 .6 10.5 1s10.2.9 10.5 1c.3.2 4.1.6 8.5 1s8.2.9 8.5 1c.3.2 3.9.6 8 1 11.4 1 72.5 9.6 78.6 11 1.1.2 5.4 4.4 9.3 9.2 4 4.9 10.8 12.6 15 17.3 4.3 4.7 9.2 10.1 11 12l3.2 3.5-9.3 2.2c-5.1 1.2-10.6 2.4-12.3 2.6-9.4 1.4-75.8 19.1-94.6 25.3-4.1 1.3-8.4 2.6-9.5 2.9-4 .8-44.9 14.7-45.8 15.5-.5.5 1.7 5.2 5 10.9 5.3 9.3 6 10.1 8.8 10.2 1.7 0 4.2.2 5.6.4 1.4.1 5.4.6 9 .9 3.6.4 7.9.8 9.5 1 1.7.2 5.7.7 9 1 87 9.3 191.5 30.1 261.5 51.9 26.8 8.4 46.4 15.7 56 20.8 17.8 9.4 57.5 28.7 72 34.9 13.4 5.7 47.6 22.3 49.2 23.8.4.4-15.1.7-34.5.8-33.5.1-90.6 1.1-106.7 1.9-4.1.2-14.2.6-22.5 1-16.1.6-27.5 1.2-39.5 2-21.9 1.5-36 2.5-40 3-2.5.3-7.2.7-10.5 1-3.3.2-7.8.7-10 1-2.2.2-6.2.7-9 1-19.1 2.2-54.8 8.5-56.3 10-.3.3.1 1.1 1 1.8 3 2.3 40.3 30.2 44.8 33.4 9.4 6.7 61.5 41.3 63.5 42.2.5.2 1.4.8 2 1.2 3.9 3.2 7.9 6.1 14 10.4 15.9 11.1 45.6 35.2 64 51.8 9.3 8.4 40.5 39.3 48.7 48.3 3.9 4.3 13 14.8 21.2 24.4 2 2.4 14.7 18.1 15.2 18.8.2.2 5.6-1 12.1-2.7 24-6.2 53.5-11.6 74.3-13.6 3.6-.4 8.1-.9 10-1.2 6.5-.9 61.5-1.1 70.5-.3 15.9 1.5 19.4 1.9 30.3 3.5 64.8 9.5 126 33.4 207.7 81 5 2.9 10.8 5.8 13 6.5 7.4 2.4 28.4 10.9 36.3 14.9 14.1 6.9 18.9 10 25.3 16.1l3.7 3.6.1-10c.1-5.4.3-10.2.5-10.5.2-.3.7-3.7 1.1-7.4.3-3.7.8-7.8 1.1-9 .2-1.2.6-4 .9-6.2 1.2-10 6.4-35.9 11.6-57.5 8.7-36.1 21.9-76.1 30.5-92.1 3.1-5.7 8.8-16.5 12.6-23.9 3.9-7.4 7.5-14.1 8.1-14.8 1.7-2.1-.2-1.3-9.6 4.2-5.1 3-12.2 6.9-15.9 8.7l-6.7 3.3-3.8-2.1c-42.5-23.8-121.2-52-251.3-90.3-9.6-2.8-33.3-9.6-42.5-12.1-9.4-2.5-16.3-4.4-34-9.4-13.5-3.8-22.3-6.1-43.7-11.7-7-1.8-12.4-3.5-12-3.9.4-.3 7.9-1.4 16.7-2.3 8.8-1 17.1-1.9 18.5-2.1 1.4-.2 7-.9 12.5-1.5s11.1-1.3 12.5-1.5c1.4-.2 5.2-.6 8.5-1 3.3-.3 7.6-.8 9.5-1 11.1-1.3 22.9-2.6 25.5-3 1.7-.2 5.7-.6 9-1 3.3-.3 7.4-.8 9-1 1.7-.3 7.1-.9 12-1.5 5-.5 10.6-1.2 12.5-1.4 1.9-.2 6.2-.7 9.5-1.1 3.3-.3 7.4-.8 9-1 1.7-.2 9.3-1.1 17-2 18.3-2.1 21.2-2.4 26-3 9.4-1.1 30.4-3.5 35-4 4.5-.5 6.9-.8 15.5-2 1.4-.2 5.9-.7 10-1 4.1-.4 7.7-.8 8-1 .3-.1 4.1-.6 8.4-1 4.3-.4 8.6-.8 9.5-1 1.8-.3 10-1.3 17.2-2 2.5-.2 11.9-1.3 21-2.4 9-1.1 18.9-2.3 21.9-2.6 3-.3 7.2-.8 9.3-1 6.7-.9 11.1-1.4 16.2-2 2.8-.3 10.4-1.2 17-2 16.3-2 15.7-2.1 20.5 2.9 16.2 17 26 42.7 26.4 69.2 0 5.7.3 10.4.6 10.4s3.5-6.9 6.9-15.3c3.5-8.3 7.4-17.5 8.6-20.2 1.3-2.8 3.9-9.1 6-14 6.1-14.9 16.5-39.7 18.7-44.5 1.1-2.5 2.3-5.4 2.8-6.5 1-2.5 10.5-24.3 13.7-31.5 1.4-3 7.5-16.7 13.5-30.5 6.1-13.7 11.8-26.8 12.8-29 5.5-11.9 15-33.8 14.8-34-.3-.3-1-.6-72.6-43.4-28.8-17.2-52.2-31.4-52-31.6.3-.3 9.6-1.1 24.3-2 5-.3 11.7-.8 15-1 3.3-.2 10.3-.7 15.5-1 10.1-.5 22.7-1.3 32.5-2 3.3-.2 10.7-.7 16.5-1 5.8-.3 12.3-.8 14.5-1 2.2-.2 10.1-.7 17.5-1.1 7.4-.5 13.8-.9 14.3-1 .4-.1 3.5-.2 7-.3l6.2-.1 10-22.1c5.5-12.2 10.1-22.5 10.3-22.9.1-.3-.3-.7-1-.8-.7 0-53.7-22.6-117.8-50.2s-117.4-50.5-118.5-50.9c-6.4-2.7-36.5-15.5-39-16.6-1.6-.8-33.1-14.3-70-30.1-36.8-15.7-69-29.5-71.5-30.6-2.5-1.1-20.5-8.8-40-17.2l-35.5-15.2-40.3-55.4c-22.2-30.5-42.5-58.7-45.3-62.5-2.7-3.9-6.6-9.3-8.6-12.2-2.1-2.8-28-38.6-57.7-79.4-30.7-42.4-54-75.3-54.2-76.8-.1-1.4-.8-6.7-1.4-11.6-.6-5-1.4-10.8-1.7-13-2.6-20.8-11-64.2-17.4-90.5-9.2-37.9-24.9-86.5-35.4-109.5-.7-1.7-3.4-7.6-5.9-13.3-21.2-47.2-49.6-86.9-79.7-111.1-26.8-21.6-75.4-47.3-132.1-70-36.8-14.7-95.4-34.3-131.3-44.1-58.7-15.8-92.6-24.1-126.5-31-5.8-1.1-11.6-2.3-12.8-2.6-1.3-.3-2.2-.1-2 .4zM1046 421.5c.8.1 10.7 3.2 22 6.8 47.1 15 115.3 34.6 139.5 40.1.6.1 4.7 1.1 9.3 2.1 4.5 1 8.2 2.1 8.2 2.4 0 .3-1.3 1.2-2.9 1.9-15.2 6.7-67.7 41.3-85.3 56.1-1.3 1-6.8 5.6-12.3 10.2-26.9 22.2-52.9 48.2-78.5 78.5-15.1 17.9-37.5 50.1-50.7 72.9-30.6 52.9-51.1 110.3-60.8 169.5-.8 5.2-1.7 10.6-1.9 12-.3 1.4-.7 4.9-1 7.7-.3 2.9-.8 7.4-1.1 10-2.8 25-3.5 57.4-2.1 88.7.4 8.8.9 16.7 1.1 17.5.1.9.6 5.6 1 10.6.4 4.9.9 9.9 1.1 11 .1 1.1 1 7.8 1.9 14.9.9 7.1 1.9 13.8 2.1 15 .2 1.1.9 5 1.4 8.5 13.3 81.7 48 176.7 95.7 261.4 2.4 4.2 5.5 9.9 7 12.5 4 7.2 20.8 34.4 28.5 46.1 3.7 5.7 6.8 10.5 6.8 10.7 0 .7 25.1 36 34.8 48.9 19 25.3 45.8 58.1 62.2 76 2.5 2.7 7 7.6 10 11 3 3.3 13.6 14.2 23.5 24.3 9.9 10.1 18.2 18.6 18.5 18.9 1.9 2.2-30.6-20-50-34-44.3-32.2-86.6-66.9-127.5-104.7-9.2-8.5-61.3-60.6-68.6-68.6-51.4-56.7-86.4-102.8-120.2-158.4-47.2-77.7-78.7-161.7-89.2-237.5-.3-2.2-.8-4.9-1-6.1-.2-1.1-.7-5.4-1.1-9.5-.3-4.1-.7-7.6-.9-7.9-1-1.6-2-28-2-52 0-26.6.6-40.7 2.5-55.4.5-3.9 1.2-9.8 1.5-13.1 2.5-22.2 14-69.7 24-99 15.4-44.9 28.1-75.6 48.5-117 45.1-91.8 98.7-163 147-195.4l7.3-4.8 25.1 8.4c13.8 4.6 25.8 8.6 26.6 8.8zm608.2 380.4c61.8 27.5 116.6 57.2 140.3 76.1 12.7 10.1 11.8 8.6 30.8 56 9.5 23.9 17.3 43.7 17.1 43.9-.2.3-124.8-47.2-134.9-51.4-16.5-6.9-21.9-8.6-24.1-7.5-1.2.7-3 1-4 .6-1.1-.3-3.5-.8-5.4-1.1-1.9-.3-4.7-.8-6.1-1.1-2.9-.5-.9 7.5-17.5-71.9-1.4-6.6-3.4-16.1-4.4-21-1.1-5-2.2-10.1-2.4-11.5-.4-2.3-1.8-8.9-3.1-14.8-.3-1.2-.3-2.2 0-2.2.2 0 6.4 2.7 13.7 5.9zM503.3 965.5c5.2 12.6 14.7 35.7 21.2 51.3l11.7 28.3-9 13.7c-38.9 59.4-61.8 121.7-72.6 197.2-.8 5.8-2 15.9-2.6 22.5-.6 6.6-1.3 13.6-1.6 15.5-.9 7.2-1.2 70-.3 82 .8 12.4 2.7 33.2 3.4 38 .2 1.4.6 5 1 8 3.3 27.9 11 65.4 19.1 94 .7 2.3.6 2.4-1.2 1-2.3-1.8-29.2-24.8-34.9-29.9-2.2-2-6.9-6.1-10.4-9.1-3.6-3-6.9-6-7.5-6.5-.6-.6-9-7.7-18.6-16-9.6-8.2-17.7-15.2-18-15.5-.3-.3-3.4-3-7-6s-6.7-5.7-7-6c-.3-.3-3.4-3-7-6s-6.7-5.7-7-6c-.3-.3-5.2-4.6-11-9.5-5.8-5-10.7-9.2-11-9.5-.3-.3-3.6-3.2-7.5-6.5-3.8-3.3-8.1-7-9.4-8.2-1.4-1.2-4.8-4.1-7.8-6.5-7.1-5.8-8.7-10.8-8.8-27.8 0-15.7.8-21.9 5.1-40 6.5-27.5 19.3-62.1 38.5-104.2 5.2-11.4 28.1-57.6 33.6-67.8 1.6-3 5.2-9.6 7.8-14.5 12.4-23.1 32.6-58.5 49.1-86.3 4.3-7.3 8.8-14.7 9.8-16.5 2.8-4.6 14.4-23.5 17.1-27.7 1.2-1.9 4.6-7.3 7.5-12 15.9-25.5 24.3-38.1 25-37.3.5.4 5.1 11.1 10.3 23.8z"/><path d="M1865.9 1620.4c-.2.2-5.8.6-12.4 1-6.6.3-12.9.8-14.1 1-1.1.2-4.7.7-8 1-22.8 2.4-57.3 11.4-84.4 22.1-12.2 4.8-29 12.1-29.9 13-.1.2 2.7 6.6 6.4 14.2 25.4 52.3 42.9 112.3 48.1 164.8.2 2.7.7 6.8.9 9 .3 2.2.7 8.9 1 15 .8 16.4 1.4 24.4 2.5 30.5.5 3 1.1 7.7 1.5 10.5.9 8.4 1.5 13.9 1.9 17 .2 1.6.7 7 1.1 12 .4 4.9.9 9.7 1 10.5 2.6 14.4 2.6 109.3 0 134.5-.4 3.7-.7 7.2-2.1 23-.2 3.3-.7 6.9-.9 8-.2 1.1-.7 4.9-1 8.5-.4 3.6-.9 7.2-1.1 8-1 3 2.4-1.5 13.9-18.5 31.2-46.3 51.7-83.7 75.2-137 22.5-51.1 42.5-119.1 51.4-175.5 3.2-20.4 3.2-20.3 5.1-38 .6-5.8 1.3-11.9 1.5-13.5 1.9-13.6 2.7-73.7 1.3-94-.7-10.2-2-23.9-2.2-24.2-.2-.2-7.5-1.2-14.5-1.8-7.4-.7-41.7-1.6-42.2-1.1z"/></svg>