<?xml version="1.0" encoding="UTF-8"?>
<svg width="200px" height="200px" viewBox="0 0 200 200" version="1.1" xmlns="http://www.w3.org/2000/svg" xmlns:xlink="http://www.w3.org/1999/xlink">
    <!-- Generator: Sketch 50.2 (55047) - http://www.bohemiancoding.com/sketch -->
    <title>logo</title>
    <desc>Created with Sketch.</desc>
    <defs>
        <path d="M103.452736,17.6600976 C103.452736,17.6600976 75.4567164,14.0610732 47.5671642,24.6425366 C24.8875622,33.2425366 -1.03084577,72.9927805 0.232835821,77.1635122 L30.4587065,62.5137561 C30.4587065,62.5137561 4.86169154,103.716683 11.7920398,122.774244 C12.8149254,125.584 59.038806,154.148878 59.038806,154.148878 C52.6159204,143.485463 52.039801,113.651317 52.039801,113.651317 C52.039801,113.651317 88.1711443,144.530341 79.9930348,177.197659 C79.9930348,177.197659 96.9731343,168.417171 98.7174129,152.581073 C102.474627,156.611317 105.455721,160.418146 107.094527,163.668878 C114.501493,178.373268 103.062687,197.63278 101.3801,200.324488 C105.931343,200.174244 110.406965,199.217171 114.622886,197.630829 C118.910448,196.037659 122.940299,193.817171 126.571144,191.110829 C133.825871,185.714732 139.564179,178.308878 142.315423,169.954732 C143.711443,165.787902 144.345274,161.435707 144.123383,157.067902 C143.921393,152.748878 142.919403,148.445463 141.224876,144.44839 C137.823881,136.416195 131.772139,129.585951 124.630846,124.381073 C122.838806,123.081561 120.969154,121.885463 119.045771,120.795707 L118.683582,120.593756 L118.502488,120.492293 L118.19204,120.304 L117.449751,119.83961 L115.948259,118.874732 C114.955224,118.224976 113.968159,117.560585 112.99403,116.873756 C109.091542,114.13522 105.320398,111.086439 101.98209,107.477659 C98.6656716,103.870829 95.8189055,99.628878 94.0746269,94.8718049 C93.2149254,92.4971707 92.60199,90.0259512 92.3044776,87.5254634 C92.160199,86.2757073 92.0825871,85.0220488 92.0686567,83.7713171 L92.0706468,82.8122927 L92.0925373,81.9566829 C92.1134328,81.3459512 92.1402985,80.7137561 92.1810945,80.1186341 C92.5502488,75.2952195 93.5303483,70.504 95.2736318,65.9537561 C97.0537313,61.4308293 99.5273632,57.0942439 102.928358,53.5010732 C106.277612,49.8805854 110.552239,47.0444878 115.231841,45.5225366 C119.917413,44.0083902 124.891542,43.8132683 129.518408,44.7059512 L129.460697,45.3410732 C124.830846,45.4142439 120.296517,46.281561 116.345274,48.2230244 C112.374129,50.1098537 109.036816,52.9908293 106.437811,56.3781463 C104.561194,58.8708293 103.027861,61.6113171 101.856716,64.504 C102.638806,68.5469268 104.646766,75.8679024 109.679602,83.7420488 C104.490547,85.1976585 100.40597,86.7381463 99.0537313,87.2659512 L99.0915423,87.486439 C100.785075,87.5898537 106.579104,88.0035122 113.61194,89.1596098 C114.558209,90.3205854 115.568159,91.4757073 116.664677,92.6249756 C110.924378,93.7947317 105.61791,95.4844878 102.259701,96.6620488 C102.573134,97.2483902 102.905473,97.8269268 103.254726,98.3976585 C109.833831,99.0259512 122.128358,100.631805 132.096517,104.410341 C134.606965,105.79961 137.297512,107.110829 140.233831,108.309854 C141.246766,108.852293 142.152239,109.306927 142.947264,109.682537 C138.855721,109.663024 121.928358,109.686439 115.325373,111.445463 C115.700498,111.744976 116.065672,112.052293 116.446766,112.346927 C117.335323,113.028878 118.239801,113.693268 119.157214,114.344976 L120.537313,115.311805 L121.247761,115.797659 L121.336318,115.858146 C121.424876,115.913756 121.334328,115.858146 121.282587,115.826927 L121.303483,115.83961 L121.496517,115.957659 L121.884577,116.194732 C123.938308,117.469854 125.917413,118.854244 127.80796,120.344 C131.711443,123.403512 135.288557,126.932293 138.315423,130.867902 C141.381095,130.016195 144.628856,129.425951 147.839801,129.287415 C151.739303,129.108878 155.632836,129.572293 159.251741,130.601561 C162.882587,131.617171 166.218905,133.161561 169.344279,134.871805 C170.492537,135.489366 171.606965,136.136195 172.717413,136.783024 C175.955224,137.887415 178.143284,139.034732 178.60995,139.946927 C178.359204,139.133268 179.132338,132.059122 181.953234,124.580098 L184.234826,120.292293 C183.280597,120.913756 182.327363,121.428878 181.41393,121.858146 C174.374129,117.561561 148.981095,111.081561 148.981095,111.081561 L183.536318,107.07278 C186.683582,109.961561 186.082587,114.430829 186.082587,114.430829 L189.830846,105.538146 C191.4199,101.915707 192.98209,98.3908293 194.358209,95.299122 L183.856716,89.024 L197.567164,88.1508293 C198.6199,85.8074146 199.262687,84.4035122 199.262687,84.4035122 L158.128358,66.7693659 L140.983085,43.1205854 C140.983085,43.1205854 138.920398,20.3576585 128.152239,13.0581463 C117.010945,5.49814634 95.360199,1.47082927 95.360199,1.47082927 L103.452736,17.6600976 Z M64.0875622,67.5800976 C65.7393035,56.9498537 74.4477612,38.7030244 82.8616915,33.7108293 C82.8616915,33.7108293 94.5910448,37.7176585 102.141294,39.3996098 C102.141294,39.3996098 77.3004975,51.1761951 77.280597,78.9644878 C77.2606965,108.413268 102.113433,130.717659 102.113433,130.717659 C102.113433,130.717659 58.438806,103.921561 64.0875622,67.5800976 Z M138.79005,76.4103415 L136.680597,66.3196098 C136.680597,66.3196098 148.162189,71.2435122 150.600995,74.1703415 L150.623881,74.1703415 L153.554229,81.5186341 L140.298507,76.4200976 L140.298507,76.6610732 L138.79005,76.4103415 Z M25.241791,114.23278 C22.3243781,106.624 41.0656716,78.3810732 41.0656716,78.3810732 L44.6736318,87.1147317 C32.2179104,104.486439 39.5343284,126.557659 39.5343284,126.557659 L25.241791,114.23278 Z M148.838806,136.018146 C146.814925,136.561561 144.901493,137.310829 143.024876,138.212293 C143.821891,139.742049 144.539303,141.313756 145.158209,142.932293 C146.831841,147.317659 147.757214,151.961561 147.849751,156.651317 C148.234826,159.219122 148.493532,161.854244 148.600995,164.550829 C148.770149,168.904976 148.555224,173.141073 147.997015,177.197659 C148.193035,176.927415 148.389055,176.653268 148.583085,176.374244 C158.204975,162.681561 161.531343,147.577171 160.241791,135.237659 C159.639801,135.16839 159.036816,135.099122 158.438806,135.064 C157.810945,135.025951 157.185075,135.006439 156.563184,135.006439 C153.911443,135.006439 151.319403,135.353756 148.838806,136.018146" id="path-1"></path>
        <linearGradient x1="46.2456763%" y1="100%" x2="46.2456763%" y2="0%" id="linearGradient-3">
            <stop stop-color="#A7925F" offset="0%"></stop>
            <stop stop-color="#FFFFFF" offset="100%"></stop>
        </linearGradient>
    </defs>
    <g id="logo" stroke="none" stroke-width="1" fill="none" fill-rule="evenodd">
        <mask id="mask-2" fill="white">
            <use xlink:href="#path-1"></use>
        </mask>
        <g id="Clip-26"></g>
        <path d="M103.452736,17.6600976 C103.452736,17.6600976 75.4567164,14.0610732 47.5671642,24.6425366 C24.8875622,33.2425366 -1.03084577,72.9927805 0.232835821,77.1635122 L30.4587065,62.5137561 C30.4587065,62.5137561 4.86169154,103.716683 11.7920398,122.774244 C12.8149254,125.584 59.038806,154.148878 59.038806,154.148878 C52.6159204,143.485463 52.039801,113.651317 52.039801,113.651317 C52.039801,113.651317 88.1711443,144.530341 79.9930348,177.197659 C79.9930348,177.197659 96.9731343,168.417171 98.7174129,152.581073 C102.474627,156.611317 105.455721,160.418146 107.094527,163.668878 C114.501493,178.373268 103.062687,197.63278 101.3801,200.324488 C105.931343,200.174244 110.406965,199.217171 114.622886,197.630829 C118.910448,196.037659 122.940299,193.817171 126.571144,191.110829 C133.825871,185.714732 139.564179,178.308878 142.315423,169.954732 C143.711443,165.787902 144.345274,161.435707 144.123383,157.067902 C143.921393,152.748878 142.919403,148.445463 141.224876,144.44839 C137.823881,136.416195 131.772139,129.585951 124.630846,124.381073 C122.838806,123.081561 120.969154,121.885463 119.045771,120.795707 L118.683582,120.593756 L118.502488,120.492293 L118.19204,120.304 L117.449751,119.83961 L115.948259,118.874732 C114.955224,118.224976 113.968159,117.560585 112.99403,116.873756 C109.091542,114.13522 105.320398,111.086439 101.98209,107.477659 C98.6656716,103.870829 95.8189055,99.628878 94.0746269,94.8718049 C93.2149254,92.4971707 92.60199,90.0259512 92.3044776,87.5254634 C92.160199,86.2757073 92.0825871,85.0220488 92.0686567,83.7713171 L92.0706468,82.8122927 L92.0925373,81.9566829 C92.1134328,81.3459512 92.1402985,80.7137561 92.1810945,80.1186341 C92.5502488,75.2952195 93.5303483,70.504 95.2736318,65.9537561 C97.0537313,61.4308293 99.5273632,57.0942439 102.928358,53.5010732 C106.277612,49.8805854 110.552239,47.0444878 115.231841,45.5225366 C119.917413,44.0083902 124.891542,43.8132683 129.518408,44.7059512 L129.460697,45.3410732 C124.830846,45.4142439 120.296517,46.281561 116.345274,48.2230244 C112.374129,50.1098537 109.036816,52.9908293 106.437811,56.3781463 C104.561194,58.8708293 103.027861,61.6113171 101.856716,64.504 C102.638806,68.5469268 104.646766,75.8679024 109.679602,83.7420488 C104.490547,85.1976585 100.40597,86.7381463 99.0537313,87.2659512 L99.0915423,87.486439 C100.785075,87.5898537 106.579104,88.0035122 113.61194,89.1596098 C114.558209,90.3205854 115.568159,91.4757073 116.664677,92.6249756 C110.924378,93.7947317 105.61791,95.4844878 102.259701,96.6620488 C102.573134,97.2483902 102.905473,97.8269268 103.254726,98.3976585 C109.833831,99.0259512 122.128358,100.631805 132.096517,104.410341 C134.606965,105.79961 137.297512,107.110829 140.233831,108.309854 C141.246766,108.852293 142.152239,109.306927 142.947264,109.682537 C138.855721,109.663024 121.928358,109.686439 115.325373,111.445463 C115.700498,111.744976 116.065672,112.052293 116.446766,112.346927 C117.335323,113.028878 118.239801,113.693268 119.157214,114.344976 L120.537313,115.311805 L121.247761,115.797659 L121.336318,115.858146 C121.424876,115.913756 121.334328,115.858146 121.282587,115.826927 L121.303483,115.83961 L121.496517,115.957659 L121.884577,116.194732 C123.938308,117.469854 125.917413,118.854244 127.80796,120.344 C131.711443,123.403512 135.288557,126.932293 138.315423,130.867902 C141.381095,130.016195 144.628856,129.425951 147.839801,129.287415 C151.739303,129.108878 155.632836,129.572293 159.251741,130.601561 C162.882587,131.617171 166.218905,133.161561 169.344279,134.871805 C170.492537,135.489366 171.606965,136.136195 172.717413,136.783024 C175.955224,137.887415 178.143284,139.034732 178.60995,139.946927 C178.359204,139.133268 179.132338,132.059122 181.953234,124.580098 L184.234826,120.292293 C183.280597,120.913756 182.327363,121.428878 181.41393,121.858146 C174.374129,117.561561 148.981095,111.081561 148.981095,111.081561 L183.536318,107.07278 C186.683582,109.961561 186.082587,114.430829 186.082587,114.430829 L189.830846,105.538146 C191.4199,101.915707 192.98209,98.3908293 194.358209,95.299122 L183.856716,89.024 L197.567164,88.1508293 C198.6199,85.8074146 199.262687,84.4035122 199.262687,84.4035122 L158.128358,66.7693659 L140.983085,43.1205854 C140.983085,43.1205854 138.920398,20.3576585 128.152239,13.0581463 C117.010945,5.49814634 95.360199,1.47082927 95.360199,1.47082927 L103.452736,17.6600976 Z M64.0875622,67.5800976 C65.7393035,56.9498537 74.4477612,38.7030244 82.8616915,33.7108293 C82.8616915,33.7108293 94.5910448,37.7176585 102.141294,39.3996098 C102.141294,39.3996098 77.3004975,51.1761951 77.280597,78.9644878 C77.2606965,108.413268 102.113433,130.717659 102.113433,130.717659 C102.113433,130.717659 58.438806,103.921561 64.0875622,67.5800976 Z M138.79005,76.4103415 L136.680597,66.3196098 C136.680597,66.3196098 148.162189,71.2435122 150.600995,74.1703415 L150.623881,74.1703415 L153.554229,81.5186341 L140.298507,76.4200976 L140.298507,76.6610732 L138.79005,76.4103415 Z M25.241791,114.23278 C22.3243781,106.624 41.0656716,78.3810732 41.0656716,78.3810732 L44.6736318,87.1147317 C32.2179104,104.486439 39.5343284,126.557659 39.5343284,126.557659 L25.241791,114.23278 Z M148.838806,136.018146 C146.814925,136.561561 144.901493,137.310829 143.024876,138.212293 C143.821891,139.742049 144.539303,141.313756 145.158209,142.932293 C146.831841,147.317659 147.757214,151.961561 147.849751,156.651317 C148.234826,159.219122 148.493532,161.854244 148.600995,164.550829 C148.770149,168.904976 148.555224,173.141073 147.997015,177.197659 C148.193035,176.927415 148.389055,176.653268 148.583085,176.374244 C158.204975,162.681561 161.531343,147.577171 160.241791,135.237659 C159.639801,135.16839 159.036816,135.099122 158.438806,135.064 C157.810945,135.025951 157.185075,135.006439 156.563184,135.006439 C153.911443,135.006439 151.319403,135.353756 148.838806,136.018146" id="Fill-25" fill="url(#linearGradient-3)" mask="url(#mask-2)"></path>
    </g>
</svg>
